<svg width="810" height="808" viewBox="0 0 810 808" fill="none" xmlns="http://www.w3.org/2000/svg">
<path fill-rule="evenodd" clip-rule="evenodd" d="M630.006 404.503C630.006 466.006 605.385 521.758 565.462 562.44C604.186 602.629 628 657.283 628 717.5C628 725.997 627.526 734.382 626.603 742.633C736.479 670.314 809.006 545.878 809.006 404.503C809.006 181.102 627.904 0 404.503 0C181.102 0 0 181.102 0 404.503C0 545.875 72.524 670.309 182.397 742.628C181.474 734.379 181 725.995 181 717.5C181 657.282 204.815 602.626 243.541 562.437C203.62 521.755 179 466.004 179 404.503C179 279.961 279.961 179 404.503 179C529.045 179 630.006 279.961 630.006 404.503ZM494.504 718C494.504 767.706 454.21 808 404.504 808C354.798 808 314.504 767.706 314.504 718C314.504 668.294 354.798 628 404.504 628C454.21 628 494.504 668.294 494.504 718Z" fill="#0A74E6"/>
</svg>
