<svg width="93" height="28" viewBox="0 0 93 28" fill="none" xmlns="http://www.w3.org/2000/svg">
<path d="M3.1 27.8456C4.81208 27.8456 6.2 26.4604 6.2 24.7516C6.2 23.0429 4.81208 21.6577 3.1 21.6577C1.38792 21.6577 0 23.0429 0 24.7516C0 26.4604 1.38792 27.8456 3.1 27.8456Z" fill="#0A74E6"/>
<path d="M13.795 10.8286H3.1C1.38792 10.8286 0 12.2138 0 13.9225C0 15.6313 1.38792 17.0165 3.1 17.0165H13.795C15.5071 17.0165 16.895 15.6313 16.895 13.9225C16.895 12.2138 15.5071 10.8286 13.795 10.8286Z" fill="#0A74E6"/>
<path d="M24.7999 0H14.1049C12.3928 0 11.0049 1.3852 11.0049 3.09392C11.0049 4.80265 12.3928 6.18784 14.1049 6.18784H24.7999C26.512 6.18784 27.8999 4.80265 27.8999 3.09392C27.8999 1.3852 26.512 0 24.7999 0Z" fill="#0A74E6"/>
<path d="M31.1644 13.0626V18.3347H39.5468V21.0573H31.1644V27.6907H27.9404V10.3647H40.6132V13.0626H31.1644Z" fill="black"/>
<path d="M43.4336 9.3252H46.5336V27.6907H43.4336V9.3252Z" fill="black"/>
<path d="M63.0515 21.1561C63.0515 21.3707 63.0349 21.6759 63.0019 22.0719H52.6107C52.7926 23.0454 53.2638 23.821 54.0243 24.3985C54.8014 24.9596 55.7603 25.2401 56.9011 25.2401C58.356 25.2401 59.5547 24.7616 60.4971 23.8045L62.1587 25.7103C61.5635 26.4199 60.8112 26.9561 59.9019 27.3192C58.9925 27.6823 57.9675 27.8637 56.8267 27.8637C55.3718 27.8637 54.0904 27.5749 52.9827 26.9974C51.875 26.4199 51.0152 25.6195 50.4035 24.5965C49.8083 23.557 49.5107 22.3855 49.5107 21.0818C49.5107 19.7948 49.8 18.6396 50.3787 17.6166C50.9739 16.5771 51.7923 15.7685 52.8339 15.191C53.8755 14.6135 55.0494 14.3247 56.3555 14.3247C57.6451 14.3247 58.7942 14.6135 59.8027 15.191C60.8278 15.7521 61.6213 16.5523 62.1835 17.5919C62.7621 18.6149 63.0515 19.803 63.0515 21.1561ZM56.3555 16.7998C55.3635 16.7998 54.5203 17.0969 53.8259 17.6909C53.148 18.2684 52.7347 19.044 52.5859 20.0175H60.1003C59.968 19.0604 59.5629 18.2849 58.8851 17.6909C58.2072 17.0969 57.364 16.7998 56.3555 16.7998Z" fill="black"/>
<path d="M74.0979 27.6904L70.7003 23.1114L67.2779 27.6904H63.8555L69.0139 20.9828L64.0787 14.4731H67.5259L70.7747 18.8046L74.0235 14.4731H77.3715L72.4115 20.9333L77.5947 27.6904H74.0979Z" fill="black"/>
<path d="M87.3972 14.3247C89.067 14.3247 90.4062 14.8115 91.4148 15.785C92.4234 16.7585 92.9276 18.2025 92.9276 20.1165V27.6905H89.8276V20.5126C89.8276 19.3574 89.5548 18.4911 89.0092 17.9137C88.4636 17.3196 87.6866 17.0226 86.678 17.0226C85.5372 17.0226 84.6362 17.3691 83.9748 18.0622C83.3134 18.7387 82.9828 19.7205 82.9828 21.0076V27.6905H79.8828V14.4732H82.834V16.1811C83.3466 15.5705 83.9914 15.1085 84.7684 14.795C85.5454 14.4815 86.4218 14.3247 87.3972 14.3247Z" fill="black"/>
</svg>
