<svg width="112" height="100" viewBox="0 0 112 100" fill="none" xmlns="http://www.w3.org/2000/svg">
<path d="M11.7904 99.4074C17.8281 99.4074 22.7226 94.4623 22.7226 88.3622C22.7226 82.262 17.8281 77.3169 11.7904 77.3169C5.75268 77.3169 0.858154 82.262 0.858154 88.3622C0.858154 94.4623 5.75268 99.4074 11.7904 99.4074Z" fill="#0A74E6"/>
<path d="M56.0659 38.6592H11.7904C5.75268 38.6592 0.858154 43.6043 0.858154 49.7044C0.858154 55.8046 5.75268 60.7497 11.7904 60.7497H56.0659C62.1036 60.7497 66.9981 55.8046 66.9981 49.7044C66.9981 43.6043 62.1036 38.6592 56.0659 38.6592Z" fill="#0A74E6"/>
<path d="M88.866 0H44.5904C38.5527 0 33.6582 4.94513 33.6582 11.0453C33.6582 17.1454 38.5527 22.0905 44.5904 22.0905H88.866C94.9037 22.0905 99.7982 17.1454 99.7982 11.0453C99.7982 4.94513 94.9037 0 88.866 0Z" fill="#0A74E6"/>
<path d="M47.5639 99.9999C45.7379 99.9999 43.9683 99.7406 42.2551 99.2222C40.5644 98.7037 39.2231 98.0161 38.2312 97.1595L39.7528 93.7443C40.7222 94.5107 41.9057 95.1419 43.3033 95.6379C44.7235 96.1113 46.1437 96.348 47.5639 96.348C49.3222 96.348 50.6297 96.0662 51.4863 95.5026C52.3654 94.939 52.805 94.1951 52.805 93.2709C52.805 92.5946 52.5571 92.0423 52.0611 91.614C51.5877 91.1632 50.9791 90.8137 50.2352 90.5658C49.4913 90.3178 48.4768 90.036 47.1919 89.7204C45.3885 89.2921 43.9232 88.8638 42.7961 88.4355C41.6915 88.0072 40.7334 87.3422 39.9219 86.4405C39.1329 85.5162 38.7384 84.2764 38.7384 82.7209C38.7384 81.4135 39.0878 80.23 39.7866 79.1705C40.508 78.0884 41.5788 77.2318 42.999 76.6006C44.4417 75.9694 46.2 75.6538 48.274 75.6538C49.7167 75.6538 51.1369 75.8342 52.5345 76.1948C53.9322 76.5555 55.1382 77.074 56.1526 77.7503L54.7662 81.1655C53.7293 80.5568 52.6472 80.0947 51.5201 79.7791C50.393 79.4635 49.2996 79.3057 48.2401 79.3057C46.5044 79.3057 45.2082 79.5988 44.3515 80.1849C43.5175 80.771 43.1004 81.5487 43.1004 82.518C43.1004 83.1943 43.3371 83.7466 43.8105 84.1749C44.3064 84.6032 44.9264 84.9414 45.6703 85.1893C46.4142 85.4373 47.4286 85.7191 48.7135 86.0347C50.4719 86.4405 51.9146 86.8688 53.0417 87.3196C54.1689 87.7479 55.1269 88.4129 55.9159 89.3147C56.7274 90.2164 57.1332 91.4337 57.1332 92.9666C57.1332 94.274 56.7725 95.4575 56.0512 96.517C55.3523 97.5765 54.2816 98.4219 52.8388 99.0531C51.3961 99.6843 49.6378 99.9999 47.5639 99.9999Z" fill="#0A74E6"/>
<path d="M61.492 75.9919H71.8391C74.3639 75.9919 76.6069 76.4879 78.5681 77.4798C80.5293 78.4491 82.0509 79.8355 83.133 81.6389C84.215 83.4198 84.7561 85.4824 84.7561 87.8268C84.7561 90.1713 84.215 92.2452 83.133 94.0486C82.0509 95.8295 80.5293 97.2159 78.5681 98.2077C76.6069 99.1771 74.3639 99.6617 71.8391 99.6617H61.492V75.9919ZM71.6362 95.9422C73.372 95.9422 74.8937 95.6153 76.2011 94.9616C77.5311 94.2853 78.5456 93.3385 79.2444 92.1212C79.9657 90.8814 80.3264 89.4499 80.3264 87.8268C80.3264 86.2038 79.9657 84.7836 79.2444 83.5663C78.5456 82.3264 77.5311 81.3796 76.2011 80.7259C74.8937 80.0496 73.372 79.7115 71.6362 79.7115H65.8879V95.9422H71.6362Z" fill="#0A74E6"/>
<path d="M97.5774 89.7542L93.824 93.609V99.6617H89.4282V75.9919H93.824V88.1312L105.524 75.9919H110.46L100.519 86.5757L111.069 99.6617H105.929L97.5774 89.7542Z" fill="#0A74E6"/>
</svg>
