<svg width="22" height="22" viewBox="0 0 22 22" fill="none" xmlns="http://www.w3.org/2000/svg">
<g clip-path="url(#clip0)">
<path d="M2.43094 22C3.77351 22 4.86188 20.9056 4.86188 19.5555C4.86188 18.2055 3.77351 17.1111 2.43094 17.1111C1.08837 17.1111 0 18.2055 0 19.5555C0 20.9056 1.08837 22 2.43094 22Z" fill="#0A74E6"/>
<path d="M10.8177 8.55566H2.43094C1.08837 8.55566 0 9.65008 0 11.0001C0 12.3501 1.08837 13.4446 2.43094 13.4446H10.8177C12.1602 13.4446 13.2486 12.3501 13.2486 11.0001C13.2486 9.65008 12.1602 8.55566 10.8177 8.55566Z" fill="#0A74E6"/>
<path d="M19.4476 0H11.0608C9.71825 0 8.62988 1.09442 8.62988 2.44444C8.62988 3.79447 9.71825 4.88889 11.0608 4.88889H19.4476C20.7901 4.88889 21.8785 3.79447 21.8785 2.44444C21.8785 1.09442 20.7901 0 19.4476 0Z" fill="#0A74E6"/>
</g>
<defs>
<clipPath id="clip0">
<rect width="22" height="22" fill="white"/>
</clipPath>
</defs>
</svg>
