<svg width="40" height="36" viewBox="0 0 40 36" fill="none" xmlns="http://www.w3.org/2000/svg">
<path d="M3.9356 35.7867C6.10917 35.7867 7.8712 34.0064 7.8712 31.8104C7.8712 29.6144 6.10917 27.8341 3.9356 27.8341C1.76203 27.8341 0 29.6144 0 31.8104C0 34.0064 1.76203 35.7867 3.9356 35.7867Z" fill="#0A74E6"/>
<path d="M19.8748 13.9174H3.9356C1.76203 13.9174 0 15.6976 0 17.8937C0 20.0897 1.76203 21.8699 3.9356 21.8699H19.8748C22.0484 21.8699 23.8104 20.0897 23.8104 17.8937C23.8104 15.6976 22.0484 13.9174 19.8748 13.9174Z" fill="#0A74E6"/>
<path d="M31.6829 0H15.7437C13.5701 0 11.8081 1.78025 11.8081 3.9763C11.8081 6.17234 13.5701 7.95259 15.7437 7.95259H31.6829C33.8565 7.95259 35.6185 6.17234 35.6185 3.9763C35.6185 1.78025 33.8565 0 31.6829 0Z" fill="#0A74E6"/>
<path d="M16.8141 36C16.1568 36 15.5197 35.9067 14.9029 35.72C14.2943 35.5334 13.8114 35.2858 13.4543 34.9775L14.0021 33.748C14.3511 34.0239 14.7771 34.2511 15.2803 34.4297C15.7916 34.6001 16.3028 34.6853 16.8141 34.6853C17.4471 34.6853 17.9178 34.5839 18.2262 34.381C18.5427 34.1781 18.7009 33.9103 18.7009 33.5776C18.7009 33.3341 18.6117 33.1353 18.4331 32.9811C18.2627 32.8188 18.0436 32.693 17.7758 32.6037C17.508 32.5145 17.1428 32.413 16.6802 32.2994C16.031 32.1452 15.5035 31.991 15.0977 31.8368C14.7001 31.6826 14.3552 31.4432 14.063 31.1186C13.779 30.7859 13.6369 30.3395 13.6369 29.7796C13.6369 29.3089 13.7627 28.8828 14.0143 28.5014C14.274 28.1119 14.6595 27.8035 15.1707 27.5763C15.6901 27.349 16.3231 27.2354 17.0697 27.2354C17.5891 27.2354 18.1004 27.3003 18.6035 27.4302C19.1067 27.56 19.5409 27.7467 19.9061 27.9901L19.407 29.2196C19.0337 29.0005 18.6441 28.8341 18.2383 28.7205C17.8326 28.6069 17.439 28.5501 17.0576 28.5501C16.4327 28.5501 15.966 28.6556 15.6577 28.8666C15.3574 29.0776 15.2073 29.3576 15.2073 29.7065C15.2073 29.95 15.2925 30.1488 15.4629 30.303C15.6414 30.4572 15.8646 30.5789 16.1324 30.6682C16.4002 30.7575 16.7654 30.8589 17.228 30.9725C17.861 31.1186 18.3804 31.2728 18.7861 31.4351C19.1919 31.5893 19.5368 31.8287 19.8208 32.1533C20.113 32.4779 20.2591 32.9162 20.2591 33.468C20.2591 33.9387 20.1292 34.3648 19.8695 34.7462C19.618 35.1276 19.2325 35.4319 18.7131 35.6591C18.1937 35.8864 17.5607 36 16.8141 36Z" fill="#0A74E6"/>
<path d="M21.8283 27.3571H25.5532C26.4621 27.3571 27.2696 27.5357 27.9756 27.8928C28.6817 28.2417 29.2295 28.7408 29.619 29.39C30.0085 30.0312 30.2033 30.7737 30.2033 31.6177C30.2033 32.4617 30.0085 33.2083 29.619 33.8575C29.2295 34.4987 28.6817 34.9977 27.9756 35.3548C27.2696 35.7038 26.4621 35.8783 25.5532 35.8783H21.8283V27.3571ZM25.4802 34.5392C26.105 34.5392 26.6528 34.4216 27.1235 34.1862C27.6023 33.9428 27.9675 33.6019 28.2191 33.1637C28.4788 32.7173 28.6086 32.202 28.6086 31.6177C28.6086 31.0334 28.4788 30.5221 28.2191 30.0839C27.9675 29.6376 27.6023 29.2967 27.1235 29.0614C26.6528 28.8179 26.105 28.6962 25.4802 28.6962H23.4107V34.5392H25.4802Z" fill="#0A74E6"/>
<path d="M34.819 32.3116L33.4678 33.6993V35.8783H31.8853V27.3571H33.4678V31.7273L37.6796 27.3571H39.4569L35.878 31.1673L39.676 35.8783H37.8257L34.819 32.3116Z" fill="#0A74E6"/>
</svg>
