<svg width="16" height="16" viewBox="0 0 16 16" fill="none" xmlns="http://www.w3.org/2000/svg">
<path d="M8.00094 0C6.10134 8.07646e-05 4.26374 0.693191 2.81695 1.95531C1.37016 3.21743 0.408596 4.9662 0.104304 6.88872C-0.199988 8.81123 0.172851 10.782 1.15611 12.4485C2.13937 14.1149 3.66888 15.3683 5.47098 15.9843C5.87097 16.0561 6.02097 15.81 6.02097 15.5947C6.02097 15.3999 6.01096 14.7539 6.01096 14.067C4.00097 14.4464 3.48097 13.5646 3.32097 13.1033C3.14344 12.6545 2.862 12.2569 2.50098 11.9447C2.22098 11.7909 1.82099 11.4115 2.49097 11.4013C2.7468 11.4297 2.99217 11.521 3.20628 11.6673C3.42039 11.8137 3.59694 12.0108 3.72097 12.242C3.83039 12.4435 3.97751 12.6209 4.15392 12.7641C4.33033 12.9072 4.53255 13.0132 4.74899 13.0761C4.96544 13.1389 5.19185 13.1574 5.41526 13.1304C5.63868 13.1034 5.85469 13.0314 6.05094 12.9187C6.08557 12.5017 6.26683 12.1118 6.56095 11.8216C4.78096 11.6166 2.92098 10.9091 2.92098 7.77174C2.90974 6.95655 3.20312 6.16784 3.74097 5.56736C3.4964 4.85886 3.52502 4.08133 3.82097 3.39374C3.82097 3.39374 4.49094 3.17842 6.02096 4.23448C7.32998 3.86535 8.71191 3.86535 10.0209 4.23448C11.5509 3.16818 12.2209 3.39374 12.2209 3.39374C12.5169 4.08132 12.5455 4.85887 12.3009 5.56736C12.8404 6.16681 13.134 6.95621 13.1209 7.77174C13.1209 10.9194 11.2509 11.6166 9.47093 11.8216C9.66185 12.02 9.80889 12.2583 9.90207 12.5201C9.99524 12.7819 10.0324 13.0612 10.0109 13.3391C10.0109 14.4362 10.0009 15.3179 10.0009 15.5947C10.0009 15.81 10.1509 16.0664 10.5509 15.9843C12.3498 15.3633 13.875 14.107 14.854 12.4397C15.8331 10.7724 16.2024 8.80261 15.896 6.88196C15.5896 4.9613 14.6274 3.2148 13.1813 1.95422C11.7351 0.693631 9.8991 0.00101291 8.00094 0Z" fill="#565656"/>
</svg>
