<svg width="16" height="16" viewBox="0 0 16 16" fill="none" xmlns="http://www.w3.org/2000/svg">
<path fill-rule="evenodd" clip-rule="evenodd" d="M15.953 4.992C15.9397 4.30834 15.8099 3.63196 15.569 2.992C15.3456 2.40965 15.0023 1.88079 14.5612 1.43976C14.1202 0.998723 13.5913 0.655373 13.009 0.432C12.369 0.191119 11.6926 0.0612541 11.009 0.048C10.233 0 9.97698 0 8.00098 0C6.02498 0 5.76898 0 4.99298 0.048C4.30932 0.0612541 3.63293 0.191119 2.99298 0.432C2.41063 0.655373 1.88177 0.998723 1.44073 1.43976C0.9997 1.88079 0.65635 2.40965 0.432977 2.992C0.192096 3.63196 0.0622307 4.30834 0.0489765 4.992C0.000976562 5.776 0.000976562 6.032 0.000976562 8C0.000976562 9.968 0.000976562 10.224 0.0489765 11.008C0.0622307 11.6917 0.192096 12.368 0.432977 13.008C0.65635 13.5903 0.9997 14.1192 1.44073 14.5602C1.88177 15.0013 2.41063 15.3446 2.99298 15.568C3.63293 15.8089 4.30932 15.9387 4.99298 15.952C5.30405 15.952 5.52924 15.9593 5.80447 15.9681L5.80452 15.9681C6.23712 15.9821 6.79336 16 8.00098 16C9.97698 16 10.233 16 11.009 15.952C11.6926 15.9387 12.369 15.8089 13.009 15.568C13.5913 15.3446 14.1202 15.0013 14.5612 14.5602C15.0023 14.1192 15.3456 13.5903 15.569 13.008C15.8099 12.368 15.9397 11.6917 15.953 11.008C15.953 10.6965 15.9603 10.47 15.9691 10.1933V10.1932L15.9691 10.1932C15.9831 9.75913 16.001 9.20173 16.001 8C16.001 6.032 16.001 5.776 15.953 4.992ZM8.00098 10.4C9.32646 10.4 10.401 9.32548 10.401 8C10.401 6.67452 9.32646 5.6 8.00098 5.6C6.67549 5.6 5.60098 6.67452 5.60098 8C5.60098 9.32548 6.67549 10.4 8.00098 10.4ZM8.00098 12C10.2101 12 12.001 10.2091 12.001 8C12.001 5.79086 10.2101 4 8.00098 4C5.79184 4 4.00098 5.79086 4.00098 8C4.00098 10.2091 5.79184 12 8.00098 12ZM12.001 4.8C12.4428 4.8 12.801 4.44183 12.801 4C12.801 3.55817 12.4428 3.2 12.001 3.2C11.5591 3.2 11.201 3.55817 11.201 4C11.201 4.44183 11.5591 4.8 12.001 4.8Z" fill="#565656"/>
</svg>
