<svg width="17" height="16" viewBox="0 0 17 16" fill="none" xmlns="http://www.w3.org/2000/svg">
<path d="M15.7173 0.000111865H2.16526C2.01292 -0.00200384 1.86166 0.02591 1.72011 0.0822592C1.57856 0.138608 1.4495 0.222289 1.3403 0.328523C1.23109 0.434756 1.14388 0.561461 1.08365 0.701402C1.02342 0.841343 0.991345 0.991778 0.989258 1.14412V14.8562C0.991345 15.0085 1.02342 15.1589 1.08365 15.2989C1.14388 15.4388 1.23109 15.5655 1.3403 15.6718C1.4495 15.778 1.57856 15.8617 1.72011 15.918C1.86166 15.9744 2.01292 16.0023 2.16526 16.0002H15.7173C15.8696 16.0023 16.0209 15.9744 16.1625 15.918C16.304 15.8617 16.4331 15.778 16.5423 15.6718C16.6515 15.5655 16.7387 15.4388 16.7989 15.2989C16.8592 15.1589 16.8912 15.0085 16.8933 14.8562V1.14412C16.8912 0.991778 16.8592 0.841343 16.7989 0.701402C16.7387 0.561461 16.6515 0.434756 16.5423 0.328523C16.4331 0.222289 16.304 0.138608 16.1625 0.0822592C16.0209 0.02591 15.8696 -0.00200384 15.7173 0.000111865ZM5.81327 13.3922H3.41327V6.19213H5.81327V13.3922ZM4.61327 5.18413C4.28228 5.18413 3.96484 5.05264 3.7308 4.8186C3.49675 4.58455 3.36527 4.26712 3.36527 3.93613C3.36527 3.60513 3.49675 3.2877 3.7308 3.05365C3.96484 2.81961 4.28228 2.68812 4.61327 2.68812C4.78903 2.66819 4.96701 2.6856 5.13557 2.73923C5.30413 2.79285 5.45946 2.88147 5.5914 2.99929C5.72333 3.11711 5.8289 3.26147 5.90117 3.42291C5.97345 3.58435 6.01081 3.75924 6.01081 3.93613C6.01081 4.11301 5.97345 4.2879 5.90117 4.44934C5.8289 4.61079 5.72333 4.75514 5.5914 4.87296C5.45946 4.99078 5.30413 5.0794 5.13557 5.13302C4.96701 5.18665 4.78903 5.20406 4.61327 5.18413ZM14.4693 13.3922H12.0693V9.52815C12.0693 8.56014 11.7253 7.92814 10.8533 7.92814C10.5834 7.93012 10.3206 8.01476 10.1004 8.17068C9.88008 8.32659 9.71288 8.54628 9.62129 8.80014C9.55868 8.98818 9.53156 9.1862 9.54129 9.38414V13.3842H7.14128C7.14128 13.3842 7.14128 6.84014 7.14128 6.18413H9.54129V7.20014C9.75931 6.82182 10.0764 6.51015 10.4584 6.2987C10.8405 6.08724 11.2729 5.98401 11.7093 6.00013C13.3093 6.00013 14.4693 7.03214 14.4693 9.24815V13.3922Z" fill="#565656"/>
</svg>
