<svg width="14" height="14" viewBox="0 0 14 14" fill="none" xmlns="http://www.w3.org/2000/svg">
<path d="M11.6667 12.4444H2.33333C1.90556 12.4444 1.55556 12.0944 1.55556 11.6667V2.33333C1.55556 1.90556 1.90556 1.55556 2.33333 1.55556H6.22222C6.65 1.55556 7 1.20556 7 0.777778C7 0.35 6.65 0 6.22222 0H1.55556C0.692222 0 0 0.7 0 1.55556V12.4444C0 13.3 0.7 14 1.55556 14H12.4444C13.3 14 14 13.3 14 12.4444V7.77778C14 7.35 13.65 7 13.2222 7C12.7944 7 12.4444 7.35 12.4444 7.77778V11.6667C12.4444 12.0944 12.0944 12.4444 11.6667 12.4444ZM8.55556 0.777778C8.55556 1.20556 8.90556 1.55556 9.33333 1.55556H11.3478L4.24667 8.65667C3.94333 8.96 3.94333 9.45 4.24667 9.75333C4.55 10.0567 5.04 10.0567 5.34333 9.75333L12.4444 2.65222V4.66667C12.4444 5.09444 12.7944 5.44444 13.2222 5.44444C13.65 5.44444 14 5.09444 14 4.66667V0.777778C14 0.35 13.65 0 13.2222 0H9.33333C8.90556 0 8.55556 0.35 8.55556 0.777778Z" fill="#A1A1A1"/>
</svg>
