<svg width="102" height="100" viewBox="0 0 102 100" fill="none" xmlns="http://www.w3.org/2000/svg">
<g clip-path="url(#clip0_245_213)">
<path fill-rule="evenodd" clip-rule="evenodd" d="M51.0002 77.9959C57.7307 77.9959 63.9222 75.7008 68.8258 71.8548L88.7049 83.266C79.4022 93.4853 65.9553 99.9052 51.0002 99.9052C36.096 99.9052 22.6897 93.5288 13.3905 83.3701L33.2918 71.9462C38.1767 75.7371 44.3232 77.9959 51.0002 77.9959ZM99.606 64.2249L79.6052 52.744C79.7368 51.6333 79.8045 50.5033 79.8045 49.3574C79.8045 37.421 72.4597 27.1901 62.0183 22.8889V3.22221e-05C84.7995 5.00462 101.841 25.2025 101.841 49.3574C101.841 54.5316 101.059 59.5243 99.606 64.2249ZM22.4132 52.8922L2.43639 64.3595C0.956835 59.6196 0.159912 54.5811 0.159912 49.3574C0.159912 25.2023 17.201 5.00454 39.9822 0V22.8889C29.5409 27.1901 22.196 37.421 22.196 49.3574C22.196 50.5543 22.2698 51.734 22.4132 52.8922ZM51.0002 60.3122C57.0853 60.3122 62.0183 55.4075 62.0183 49.3576C62.0183 43.3075 57.0853 38.403 51.0002 38.403C44.9151 38.403 39.9822 43.3075 39.9822 49.3576C39.9822 55.4075 44.9151 60.3122 51.0002 60.3122Z" fill="#0A74E6"/>
</g>
<defs>
<clipPath id="clip0_245_213">
<rect width="101.681" height="100" fill="white" transform="translate(0.159668)"/>
</clipPath>
</defs>
</svg>
