<svg width="21" height="16" viewBox="0 0 21 16" fill="none" xmlns="http://www.w3.org/2000/svg">
<path d="M6.65327 16C14.0826 16 18.1455 9.84491 18.1455 4.50777C18.1455 4.3329 18.1419 4.15892 18.1339 3.98561C18.9225 3.41554 19.6081 2.70395 20.1488 1.89429C19.4251 2.21582 18.6464 2.43234 17.8293 2.52997C18.6632 2.02998 19.3036 1.23867 19.6056 0.295562C18.8251 0.758386 17.9608 1.0947 17.0409 1.27607C16.3036 0.491037 15.2539 0 14.0925 0C11.8617 0 10.0527 1.80898 10.0527 4.03868C10.0527 4.35574 10.0883 4.66384 10.1573 4.95963C6.80061 4.79102 3.82394 3.18356 1.83202 0.739802C1.48474 1.33652 1.28479 2.0302 1.28479 2.76978C1.28479 4.17101 1.99794 5.40812 3.08234 6.13202C2.41979 6.11165 1.79732 5.92938 1.25299 5.62666C1.2521 5.64345 1.2521 5.66047 1.2521 5.67816C1.2521 7.63447 2.6446 9.26767 4.49253 9.6378C4.15331 9.73027 3.79639 9.77998 3.42784 9.77998C3.16765 9.77998 2.91463 9.75401 2.66856 9.70721C3.18265 11.3118 4.6739 12.4797 6.4419 12.5126C5.05925 13.5961 3.31767 14.2416 1.4254 14.2416C1.09961 14.2416 0.778076 14.223 0.461914 14.1857C2.24939 15.3312 4.37185 16 6.65327 16Z" fill="#565656"/>
</svg>
