<svg width="23" height="16" viewBox="0 0 23 16" fill="none" xmlns="http://www.w3.org/2000/svg">
<path d="M22.955 5.5477C23.0053 4.09114 22.6868 2.64549 22.029 1.34496C21.5827 0.811323 20.9633 0.451202 20.2787 0.327349C17.4472 0.0704274 14.604 -0.0348762 11.7613 0.0118891C8.92892 -0.0369987 6.09595 0.0649068 3.27441 0.317173C2.71658 0.418646 2.20034 0.680299 1.7887 1.07021C0.872849 1.91482 0.771087 3.35983 0.669326 4.58097C0.521683 6.77653 0.521683 8.97953 0.669326 11.1751C0.698766 11.8624 0.801101 12.5446 0.97461 13.2103C1.09731 13.7243 1.34555 14.1998 1.69711 14.5943C2.11155 15.0048 2.63981 15.2814 3.21336 15.388C5.40724 15.6588 7.6178 15.771 9.82783 15.7238C13.3895 15.7747 16.5135 15.7238 20.2075 15.4389C20.7951 15.3388 21.3382 15.0619 21.7644 14.6451C22.0493 14.3601 22.2621 14.0113 22.3852 13.6275C22.7491 12.5108 22.9278 11.3421 22.9143 10.1677C22.955 9.59779 22.955 6.15826 22.955 5.5477ZM9.46149 10.7782V4.4792L15.4858 7.64398C13.7965 8.58018 11.5679 9.6385 9.46149 10.7782Z" fill="#565656"/>
</svg>
