<svg width="48" height="48" viewBox="0 0 48 48" fill="none" xmlns="http://www.w3.org/2000/svg">
<g>
<path fill-rule="evenodd" clip-rule="evenodd" d="M37.3337 23.9705C37.3337 27.6152 35.8747 30.919 33.5089 33.3298C35.8036 35.7113 37.2148 38.9501 37.2148 42.5185C37.2148 43.022 37.1867 43.5189 37.132 44.0079C43.6432 39.7223 47.9411 32.3483 47.9411 23.9705C47.9411 10.732 37.2091 0 23.9705 0C10.732 0 0 10.732 0 23.9705C0 32.3481 4.29772 39.722 10.8087 44.0076C10.754 43.5188 10.7259 43.0219 10.7259 42.5185C10.7259 38.95 12.1372 35.7112 14.4321 33.3296C12.0664 30.9188 10.6074 27.6151 10.6074 23.9705C10.6074 16.5903 16.5903 10.6074 23.9705 10.6074C31.3508 10.6074 37.3337 16.5903 37.3337 23.9705ZM29.3039 42.5481C29.3039 45.4937 26.9161 47.8815 23.9706 47.8815C21.0251 47.8815 18.6373 45.4937 18.6373 42.5481C18.6373 39.6026 21.0251 37.2148 23.9706 37.2148C26.9161 37.2148 29.3039 39.6026 29.3039 42.5481Z" fill="white"/>
</g>
</svg>
