<svg width="195" height="48" viewBox="0 0 195 48" fill="none" xmlns="http://www.w3.org/2000/svg">
<path fill-rule="evenodd" clip-rule="evenodd" d="M37.4261 24.0299C37.4261 27.6835 35.9635 30.9955 33.5918 33.4123C35.8922 35.7997 37.3069 39.0465 37.3069 42.6238C37.3069 43.1285 37.2788 43.6266 37.2239 44.1168C43.7512 39.8206 48.0597 32.4284 48.0597 24.0299C48.0597 10.7585 37.3012 0 24.0299 0C10.7585 0 0 10.7585 0 24.0299C0 32.4282 4.30836 39.8203 10.8355 44.1165C10.7806 43.6265 10.7525 43.1284 10.7525 42.6238C10.7525 39.0464 12.1672 35.7996 14.4678 33.4121C12.0962 30.9953 10.6337 27.6834 10.6337 24.0299C10.6337 16.6313 16.6313 10.6337 24.0299 10.6337C31.4284 10.6337 37.4261 16.6313 37.4261 24.0299ZM29.3765 42.6535C29.3765 45.6063 26.9828 48 24.0299 48C21.0771 48 18.6834 45.6063 18.6834 42.6535C18.6834 39.7006 21.0771 37.3069 24.0299 37.3069C26.9828 37.3069 29.3765 39.7006 29.3765 42.6535Z" fill="white"/>
<path d="M71.7022 39.2004C69.4673 39.2004 67.3861 38.8372 65.4585 38.1109C63.5589 37.3566 61.8967 36.309 60.472 34.9681C59.0752 33.5992 57.9857 31.9929 57.2035 30.1492C56.4213 28.3054 56.0302 26.294 56.0302 24.115C56.0302 21.9361 56.4213 19.9247 57.2035 18.0809C57.9857 16.2372 59.0892 14.6448 60.5139 13.3039C61.9386 11.935 63.6008 10.8875 65.5004 10.1611C67.4001 9.40686 69.4813 9.02972 71.7441 9.02972C74.1466 9.02972 76.3395 9.44876 78.323 10.2868C80.3064 11.097 81.9826 12.3122 83.3514 13.9325L79.8315 17.2428C78.7699 16.0975 77.5827 15.2454 76.2697 14.6867C74.9567 14.1001 73.532 13.8067 71.9955 13.8067C70.459 13.8067 69.0483 14.0582 67.7632 14.561C66.5061 15.0639 65.4027 15.7762 64.4529 16.6981C63.531 17.62 62.8046 18.7095 62.2739 19.9666C61.771 21.2237 61.5196 22.6065 61.5196 24.115C61.5196 25.6236 61.771 27.0064 62.2739 28.2635C62.8046 29.5206 63.531 30.6101 64.4529 31.532C65.4027 32.4539 66.5061 33.1662 67.7632 33.6691C69.0483 34.1719 70.459 34.4234 71.9955 34.4234C73.532 34.4234 74.9567 34.144 76.2697 33.5853C77.5827 32.9986 78.7699 32.1187 79.8315 30.9453L83.3514 34.2976C81.9826 35.89 80.3064 37.1052 78.323 37.9433C76.3395 38.7813 74.1326 39.2004 71.7022 39.2004Z" fill="white"/>
<path d="M88.0682 38.7813V16.4048H93.0547V22.5646L92.4681 20.7628C93.1385 19.2542 94.1861 18.1089 95.6109 17.3267C97.0635 16.5445 98.8654 16.1534 101.016 16.1534V21.1399C100.793 21.084 100.583 21.0561 100.388 21.0561C100.192 21.0281 99.9968 21.0142 99.8012 21.0142C97.8178 21.0142 96.2394 21.6008 95.0661 22.7741C93.8928 23.9195 93.3062 25.6376 93.3062 27.9283V38.7813H88.0682Z" fill="white"/>
<path d="M115.773 39.0747C113.287 39.0747 111.108 38.5858 109.236 37.608C107.392 36.6023 105.954 35.2335 104.92 33.5015C103.914 31.7695 103.411 29.8 103.411 27.5931C103.411 25.3582 103.9 23.3887 104.878 21.6846C105.884 19.9526 107.253 18.5977 108.985 17.62C110.745 16.6422 112.742 16.1534 114.977 16.1534C117.156 16.1534 119.097 16.6283 120.802 17.5781C122.506 18.5279 123.847 19.8688 124.824 21.6008C125.802 23.3328 126.291 25.3722 126.291 27.7188C126.291 27.9423 126.277 28.1937 126.249 28.473C126.249 28.7524 126.235 29.0178 126.207 29.2692H107.56V25.7912H123.441L121.388 26.8807C121.416 25.5956 121.151 24.4642 120.592 23.4865C120.033 22.5087 119.265 21.7405 118.287 21.1818C117.337 20.6231 116.234 20.3437 114.977 20.3437C113.692 20.3437 112.56 20.6231 111.583 21.1818C110.633 21.7405 109.879 22.5227 109.32 23.5284C108.789 24.5062 108.524 25.6655 108.524 27.0064V27.8445C108.524 29.1854 108.831 30.3727 109.446 31.4063C110.06 32.4399 110.926 33.2361 112.044 33.7948C113.161 34.3535 114.446 34.6329 115.899 34.6329C117.156 34.6329 118.287 34.4373 119.293 34.0462C120.299 33.6551 121.193 33.0405 121.975 32.2025L124.782 35.429C123.777 36.6023 122.506 37.5103 120.969 38.1528C119.461 38.7674 117.729 39.0747 115.773 39.0747Z" fill="white"/>
<path d="M144.495 38.7813V34.2557L144.201 33.292V25.3722C144.201 23.8357 143.741 22.6484 142.819 21.8103C141.897 20.9443 140.5 20.5113 138.628 20.5113C137.371 20.5113 136.128 20.7069 134.899 21.098C133.698 21.4891 132.678 22.0338 131.84 22.7322L129.787 18.919C130.988 17.9971 132.413 17.3127 134.061 16.8657C135.737 16.3908 137.469 16.1534 139.257 16.1534C142.497 16.1534 144.998 16.9356 146.758 18.5C148.545 20.0364 149.439 22.4249 149.439 25.6655V38.7813H144.495ZM137.455 39.0747C135.779 39.0747 134.312 38.7953 133.055 38.2366C131.798 37.6499 130.82 36.8538 130.122 35.8481C129.451 34.8145 129.116 33.6551 129.116 32.3701C129.116 31.113 129.409 29.9816 129.996 28.9759C130.611 27.9702 131.602 27.174 132.971 26.5874C134.34 26.0007 136.156 25.7074 138.419 25.7074H144.914V29.1854H138.796C137.008 29.1854 135.807 29.4787 135.192 30.0654C134.578 30.6241 134.27 31.3225 134.27 32.1606C134.27 33.1104 134.647 33.8646 135.402 34.4234C136.156 34.9821 137.204 35.2614 138.544 35.2614C139.829 35.2614 140.975 34.9681 141.981 34.3814C143.014 33.7948 143.754 32.9288 144.201 31.7834L145.081 34.9262C144.579 36.2392 143.671 37.2588 142.358 37.9852C141.073 38.7115 139.438 39.0747 137.455 39.0747Z" fill="white"/>
<path d="M164.584 39.0747C162.126 39.0747 160.226 38.4461 158.885 37.189C157.544 35.9039 156.874 34.0183 156.874 31.532V11.4601H162.112V31.4063C162.112 32.4678 162.377 33.292 162.908 33.8786C163.467 34.4653 164.235 34.7586 165.213 34.7586C166.386 34.7586 167.364 34.4513 168.146 33.8367L169.613 37.5661C168.998 38.069 168.244 38.4461 167.35 38.6975C166.456 38.949 165.534 39.0747 164.584 39.0747ZM153.187 20.7628V16.5724H168.104V20.7628H153.187Z" fill="white"/>
<path d="M183.703 39.0747C181.217 39.0747 179.038 38.5858 177.166 37.608C175.322 36.6023 173.883 35.2335 172.85 33.5015C171.844 31.7695 171.341 29.8 171.341 27.5931C171.341 25.3582 171.83 23.3887 172.808 21.6846C173.814 19.9526 175.182 18.5977 176.914 17.62C178.674 16.6422 180.672 16.1534 182.907 16.1534C185.086 16.1534 187.027 16.6283 188.731 17.5781C190.435 18.5279 191.776 19.8688 192.754 21.6008C193.732 23.3328 194.221 25.3722 194.221 27.7188C194.221 27.9423 194.207 28.1937 194.179 28.473C194.179 28.7524 194.165 29.0178 194.137 29.2692H175.49V25.7912H191.371L189.318 26.8807C189.346 25.5956 189.08 24.4642 188.522 23.4865C187.963 22.5087 187.195 21.7405 186.217 21.1818C185.267 20.6231 184.164 20.3437 182.907 20.3437C181.622 20.3437 180.49 20.6231 179.512 21.1818C178.563 21.7405 177.808 22.5227 177.25 23.5284C176.719 24.5062 176.454 25.6655 176.454 27.0064V27.8445C176.454 29.1854 176.761 30.3727 177.375 31.4063C177.99 32.4399 178.856 33.2361 179.973 33.7948C181.091 34.3535 182.376 34.6329 183.829 34.6329C185.086 34.6329 186.217 34.4373 187.223 34.0462C188.228 33.6551 189.122 33.0405 189.905 32.2025L192.712 35.429C191.706 36.6023 190.435 37.5103 188.899 38.1528C187.39 38.7674 185.658 39.0747 183.703 39.0747Z" fill="white"/>
</svg>
