<svg width="38" height="38" viewBox="0 0 38 38" fill="none" xmlns="http://www.w3.org/2000/svg">
<path d="M31.6667 12.6667L22.1667 4.33834C21.2958 3.55941 20.1684 3.12878 19 3.12878C17.8316 3.12878 16.7042 3.55941 15.8334 4.33834L6.33336 12.6667C5.83044 13.1165 5.42912 13.6682 5.15611 14.2852C4.8831 14.9022 4.74466 15.5703 4.75003 16.245V30.0833C4.75003 31.3431 5.25047 32.5513 6.14127 33.4421C7.03207 34.3329 8.24025 34.8333 9.50003 34.8333H28.5C29.7598 34.8333 30.968 34.3329 31.8588 33.4421C32.7496 32.5513 33.25 31.3431 33.25 30.0833V16.2292C33.2531 15.5571 33.1136 14.8921 32.8407 14.278C32.5677 13.6639 32.1676 13.1147 31.6667 12.6667ZM22.1667 34.8333L15.8334 34.8333V23.75C15.8334 23.3301 16.0002 22.9274 16.2971 22.6304C16.594 22.3335 16.9968 22.1667 17.4167 22.1667H20.5834C21.0033 22.1667 21.406 22.3335 21.7029 22.6304C21.9999 22.9274 22.1667 23.3301 22.1667 23.75L22.1667 34.8333Z" fill="#FFFFFF"/>
</svg>
