<svg width="36" height="36" viewBox="0 0 36 36" fill="none" xmlns="http://www.w3.org/2000/svg">
<path d="M18 15C17.4067 15 16.8266 15.1759 16.3333 15.5056C15.8399 15.8352 15.4554 16.3038 15.2284 16.852C15.0013 17.4001 14.9419 18.0033 15.0576 18.5853C15.1734 19.1672 15.4591 19.7018 15.8787 20.1213C16.2982 20.5409 16.8328 20.8266 17.4147 20.9424C17.9967 21.0581 18.5999 20.9987 19.1481 20.7716C19.6962 20.5446 20.1648 20.1601 20.4944 19.6667C20.8241 19.1734 21 18.5933 21 18C21 17.2044 20.6839 16.4413 20.1213 15.8787C19.5587 15.3161 18.7957 15 18 15ZM7.5 15C6.90666 15 6.32664 15.1759 5.83329 15.5056C5.33994 15.8352 4.95543 16.3038 4.72836 16.852C4.5013 17.4001 4.44189 18.0033 4.55765 18.5853C4.6734 19.1672 4.95912 19.7018 5.37868 20.1213C5.79824 20.5409 6.33279 20.8266 6.91473 20.9424C7.49667 21.0581 8.09987 20.9987 8.64805 20.7716C9.19623 20.5446 9.66477 20.1601 9.99441 19.6667C10.3241 19.1734 10.5 18.5933 10.5 18C10.5 17.2044 10.1839 16.4413 9.62132 15.8787C9.05871 15.3161 8.29565 15 7.5 15ZM28.5 15C27.9067 15 27.3266 15.1759 26.8333 15.5056C26.3399 15.8352 25.9554 16.3038 25.7284 16.852C25.5013 17.4001 25.4419 18.0033 25.5576 18.5853C25.6734 19.1672 25.9591 19.7018 26.3787 20.1213C26.7982 20.5409 27.3328 20.8266 27.9147 20.9424C28.4967 21.0581 29.0999 20.9987 29.6481 20.7716C30.1962 20.5446 30.6648 20.1601 30.9944 19.6667C31.3241 19.1734 31.5 18.5933 31.5 18C31.5 17.2044 31.1839 16.4413 30.6213 15.8787C30.0587 15.3161 29.2957 15 28.5 15Z" fill="white"/>
</svg>
