<svg width="38" height="38" viewBox="0 0 38 38" fill="none" xmlns="http://www.w3.org/2000/svg">
<path fill-rule="evenodd" clip-rule="evenodd" d="M15.9098 7.05194C11.7836 8.27527 8.81267 11.7751 8.81267 15.8909V23.1351C8.8127 23.1351 8.81265 23.1351 8.81267 23.1351L8.81257 26.7727H7.08541C7.08543 26.7727 7.08537 26.7727 7.08541 26.7727C7.02603 26.7727 6.96723 26.7754 6.90936 26.7809C6.04118 26.8608 5.35803 27.5257 5.35803 28.3273C5.35803 29.0997 5.99239 29.7452 6.81539 29.8628C6.90339 29.8752 6.99354 29.8818 7.08531 29.8818C7.08527 29.8818 7.08533 29.8818 7.08531 29.8818H31.2672C32.2172 29.8818 32.9945 29.1823 32.9945 28.3273C32.9945 27.4723 32.2172 26.7727 31.2672 26.7727H29.5399V23.1351V15.8909C29.5399 11.7751 26.569 8.27527 22.4427 7.05194C22.2211 6.98597 21.996 6.92674 21.7672 6.87454V5.78636C21.7672 4.49609 20.6099 3.45454 19.1763 3.45454C17.7427 3.45454 16.5854 4.49609 16.5854 5.78636V6.87454C16.357 6.92691 16.1318 6.98612 15.9098 7.05194ZM19.1763 34.5455C21.0763 34.5455 22.6308 33.1464 22.6308 31.4364H15.7218C15.7218 33.1464 17.2763 34.5455 19.1763 34.5455Z" fill="white"/>
</svg>
