<svg width="38" height="38" viewBox="0 0 38 38" fill="none" xmlns="http://www.w3.org/2000/svg">
<path d="M30.2733 3.49917C30.0871 3.34295 29.8674 3.2317 29.6313 3.17404C29.3952 3.11638 29.1489 3.11386 28.9117 3.16667L16.245 6.33334C15.8937 6.42003 15.5827 6.62443 15.3637 6.91252C15.1448 7.2006 15.0311 7.55499 15.0417 7.91668V24.3042C14.3019 23.9428 13.49 23.7534 12.6667 23.75C11.5706 23.75 10.4992 24.075 9.58788 24.6839C8.67656 25.2929 7.96627 26.1584 7.54684 27.171C7.1274 28.1836 7.01766 29.2978 7.23148 30.3728C7.44531 31.4478 7.9731 32.4352 8.74812 33.2102C9.52313 33.9852 10.5106 34.513 11.5855 34.7269C12.6605 34.9407 13.7748 34.8309 14.7874 34.4115C15.8 33.9921 16.6655 33.2818 17.2744 32.3705C17.8833 31.4591 18.2083 30.3877 18.2083 29.2917V17.0683L29.6717 14.25H29.7825L30.0833 14.0125L30.3208 13.8542C30.3977 13.7826 30.4667 13.703 30.5267 13.6167C30.5884 13.5439 30.6416 13.4642 30.685 13.3792C30.7329 13.2904 30.7651 13.194 30.78 13.0942C30.7965 12.9946 30.7965 12.8929 30.78 12.7933C30.7871 12.7514 30.7871 12.7086 30.78 12.6667V4.75001C30.7929 4.51706 30.7542 4.28414 30.6666 4.06791C30.579 3.85167 30.4447 3.65746 30.2733 3.49917ZM12.6667 31.6667C12.1969 31.6667 11.7378 31.5274 11.3472 31.2664C10.9566 31.0054 10.6522 30.6345 10.4725 30.2005C10.2927 29.7666 10.2457 29.289 10.3373 28.8283C10.4289 28.3676 10.6551 27.9444 10.9873 27.6123C11.3194 27.2801 11.7426 27.0539 12.2033 26.9623C12.664 26.8707 13.1416 26.9177 13.5755 27.0975C14.0095 27.2772 14.3804 27.5816 14.6414 27.9722C14.9024 28.3628 15.0417 28.8219 15.0417 29.2917C15.0417 29.9216 14.7914 30.5257 14.346 30.9711C13.9006 31.4165 13.2966 31.6667 12.6667 31.6667ZM27.7083 11.4317L18.2083 13.8067V9.15168L27.7083 6.77668V11.4317Z" fill="white"/>
</svg>
