<svg width="54" height="64" viewBox="0 0 54 64" fill="none" xmlns="http://www.w3.org/2000/svg">
<path d="M33.7311 18.649C34.5742 18.649 35.3827 18.9839 35.9789 19.58C36.575 20.1762 36.9099 20.9847 36.9099 21.8278V59.9735C36.9099 60.8166 36.575 61.6251 35.9789 62.2213C35.3827 62.8174 34.5742 63.1523 33.7311 63.1523C32.888 63.1523 32.0795 62.8174 31.4833 62.2213C30.8872 61.6251 30.5523 60.8166 30.5523 59.9735V21.8278C30.5523 20.9847 30.8872 20.1762 31.4833 19.58C32.0795 18.9839 32.888 18.649 33.7311 18.649Z" fill="white"/>
<path d="M52.9325 0.931051C52.3364 0.334909 51.5279 0 50.6848 0C49.8417 0 49.0332 0.334909 48.437 0.931051C47.8409 1.52719 47.506 2.33574 47.506 3.17881V60.3974C47.506 61.2404 47.8409 62.049 48.437 62.6451C49.0332 63.2413 49.8417 63.5762 50.6848 63.5762C51.5279 63.5762 52.3364 63.2413 52.9325 62.6451C53.5287 62.049 53.8636 61.2404 53.8636 60.3974V3.17881C53.8636 2.33574 53.5287 1.52719 52.9325 0.931051Z" fill="white"/>
<path d="M3.21456 32.2119C4.05764 32.2119 4.86618 32.5468 5.46232 33.143C6.05846 33.7391 6.39337 34.5476 6.39337 35.3907V60.8212C6.39337 61.6643 6.05846 62.4728 5.46232 63.069C4.86618 63.6651 4.05764 64 3.21456 64C2.37149 64 1.56295 63.6651 0.966807 63.069C0.370665 62.4728 0.0357556 61.6643 0.0357556 60.8212V35.3907C0.0357556 34.5476 0.370665 33.7391 0.966807 33.143C1.56295 32.5468 2.37149 32.2119 3.21456 32.2119Z" fill="white"/>
<path d="M18.4729 44.0795C19.3159 44.0795 20.1245 44.4144 20.7206 45.0105C21.3168 45.6067 21.6517 46.4152 21.6517 47.2583V59.9735C21.6517 60.8166 21.3168 61.6251 20.7206 62.2213C20.1245 62.8174 19.3159 63.1523 18.4729 63.1523C17.6298 63.1523 16.8212 62.8174 16.2251 62.2213C15.629 61.6251 15.2941 60.8166 15.2941 59.9735V47.2583C15.2941 46.4152 15.629 45.6067 16.2251 45.0105C16.8212 44.4144 17.6298 44.0795 18.4729 44.0795Z" fill="white"/>
</svg>
