<svg width="38" height="38" viewBox="0 0 38 38" fill="none" xmlns="http://www.w3.org/2000/svg">
<path d="M34.3744 32.1258L28.5002 26.2991C30.7804 23.4561 31.8846 19.8475 31.5858 16.2153C31.2871 12.5832 29.608 9.20351 26.894 6.77129C24.1799 4.33907 20.6371 3.03916 16.994 3.13885C13.3509 3.23854 9.88452 4.73025 7.30752 7.30725C4.73052 9.88425 3.23881 13.3507 3.13913 16.9937C3.03944 20.6368 4.33935 24.1796 6.77157 26.8937C9.20379 29.6077 12.5834 31.2868 16.2156 31.5856C19.8478 31.8843 23.4564 30.7801 26.2994 28.4999L32.1261 34.3266C32.2732 34.475 32.4484 34.5928 32.6413 34.6732C32.8342 34.7536 33.0412 34.795 33.2502 34.795C33.4592 34.795 33.6662 34.7536 33.8591 34.6732C34.0521 34.5928 34.2272 34.475 34.3744 34.3266C34.6598 34.0314 34.8193 33.6368 34.8193 33.2262C34.8193 32.8156 34.6598 32.421 34.3744 32.1258ZM17.4169 28.4999C15.2248 28.4999 13.082 27.8499 11.2593 26.6321C9.43667 25.4142 8.01609 23.6832 7.17722 21.658C6.33835 19.6328 6.11886 17.4043 6.54651 15.2544C6.97416 13.1044 8.02975 11.1295 9.57978 9.57951C11.1298 8.02947 13.1047 6.97389 15.2546 6.54624C17.4046 6.11858 19.6331 6.33807 21.6583 7.17694C23.6835 8.01581 25.4145 9.43639 26.6323 11.259C27.8502 13.0817 28.5002 15.2245 28.5002 17.4166C28.5002 20.3561 27.3325 23.1752 25.254 25.2537C23.1755 27.3322 20.3564 28.4999 17.4169 28.4999Z" fill="white"/>
</svg>
