<svg width="38" height="38" viewBox="0 0 38 38" fill="none" xmlns="http://www.w3.org/2000/svg">
<path d="M33.4872 15.1914L30.5491 14.212L31.9326 11.4449C32.0729 11.1553 32.1198 10.8293 32.0669 10.5118C32.014 10.1944 31.8639 9.90122 31.6373 9.67273L28.3261 6.36155C28.0964 6.13161 27.8004 5.97945 27.4797 5.92647C27.159 5.87349 26.8298 5.92235 26.5384 6.06618L23.7713 7.44973L22.7919 4.51164C22.6885 4.20538 22.4922 3.93899 22.2302 3.74952C21.9683 3.56006 21.6539 3.45695 21.3306 3.45455H16.667C16.3411 3.45371 16.0232 3.55531 15.7582 3.745C15.4932 3.93469 15.2945 4.20287 15.1902 4.51164L14.2108 7.44973L11.4437 6.06618C11.1541 5.92593 10.8281 5.87902 10.5107 5.93193C10.1932 5.98483 9.90005 6.13494 9.67155 6.36155L6.36037 9.67273C6.13043 9.90244 5.97828 10.1984 5.9253 10.5191C5.87232 10.8398 5.92118 11.169 6.06501 11.4605L7.44856 14.2275L4.51047 15.2069C4.20421 15.3103 3.93781 15.5067 3.74835 15.7686C3.55888 16.0305 3.45578 16.3449 3.45337 16.6682V21.3318C3.45253 21.6577 3.55414 21.9756 3.74383 22.2406C3.93352 22.5057 4.2017 22.7043 4.51047 22.8086L7.44856 23.788L6.06501 26.5551C5.92476 26.8447 5.87785 27.1707 5.93075 27.4882C5.98366 27.8056 6.13377 28.0988 6.36037 28.3273L9.67155 31.6385C9.90126 31.8684 10.1973 32.0205 10.5179 32.0735C10.8386 32.1265 11.1678 32.0776 11.4593 31.9338L14.2264 30.5503L15.2057 33.4884C15.31 33.7971 15.5087 34.0653 15.7737 34.255C16.0387 34.4447 16.3567 34.5463 16.6826 34.5455H21.3462C21.6721 34.5463 21.99 34.4447 22.255 34.255C22.52 34.0653 22.7187 33.7971 22.823 33.4884L23.8024 30.5503L26.5695 31.9338C26.8572 32.0705 27.1801 32.1155 27.4943 32.0627C27.8085 32.0099 28.0988 31.8618 28.3261 31.6385L31.6373 28.3273C31.8672 28.0976 32.0194 27.8016 32.0724 27.4809C32.1253 27.1602 32.0765 26.831 31.9326 26.5395L30.5491 23.7725L33.4872 22.7931C33.7934 22.6897 34.0598 22.4933 34.2493 22.2314C34.4388 21.9695 34.5419 21.6551 34.5443 21.3318V16.6682C34.5451 16.3423 34.4435 16.0244 34.2538 15.7593C34.0641 15.4943 33.7959 15.2957 33.4872 15.1914ZM31.4352 20.2125L29.5697 20.8344C29.1408 20.9735 28.7472 21.2043 28.4163 21.5107C28.0855 21.8172 27.8253 22.1919 27.6537 22.609C27.4821 23.0261 27.4034 23.4755 27.4228 23.926C27.4423 24.3766 27.5596 24.8175 27.7665 25.2182L28.6525 26.9904L26.9426 28.7004L25.217 27.7676C24.8183 27.569 24.3817 27.4584 23.9365 27.4432C23.4914 27.428 23.0482 27.5086 22.637 27.6796C22.2257 27.8506 21.856 28.108 21.5528 28.4343C21.2497 28.7606 21.0202 29.1482 20.8798 29.5709L20.258 31.4364H17.7863L17.1645 29.5709C17.0253 29.1419 16.7945 28.7484 16.4881 28.4175C16.1816 28.0867 15.8069 27.8264 15.3898 27.6549C14.9728 27.4833 14.5234 27.4045 14.0728 27.424C13.6223 27.4435 13.1814 27.5607 12.7806 27.7676L11.0085 28.6537L9.29846 26.9437L10.2312 25.2182C10.4381 24.8175 10.5553 24.3766 10.5748 23.926C10.5943 23.4755 10.5155 23.0261 10.344 22.609C10.1724 22.1919 9.91216 21.8172 9.58131 21.5107C9.25045 21.2043 8.85688 20.9735 8.42792 20.8344L6.56246 20.2125V17.7875L8.42792 17.1656C8.85688 17.0265 9.25045 16.7957 9.58131 16.4893C9.91216 16.1828 10.1724 15.8081 10.344 15.391C10.5155 14.9739 10.5943 14.5245 10.5748 14.074C10.5553 13.6234 10.4381 13.1825 10.2312 12.7818L9.3451 11.0563L11.0551 9.34627L12.7806 10.2324C13.1814 10.4393 13.6223 10.5565 14.0728 10.576C14.5234 10.5955 14.9728 10.5167 15.3898 10.3451C15.8069 10.1736 16.1816 9.91334 16.4881 9.58248C16.7945 9.25162 17.0253 8.85806 17.1645 8.42909L17.7863 6.56364H20.2114L20.8332 8.42909C20.9723 8.85806 21.2031 9.25162 21.5096 9.58248C21.816 9.91334 22.1908 10.1736 22.6078 10.3451C23.0249 10.5167 23.4743 10.5955 23.9248 10.576C24.3754 10.5565 24.8163 10.4393 25.217 10.2324L26.9892 9.34627L28.6992 11.0563L27.7665 12.7818C27.5678 13.1805 27.4572 13.6171 27.442 14.0623C27.4268 14.5074 27.5075 14.9506 27.6785 15.3619C27.8495 15.7731 28.1068 16.1429 28.4331 16.446C28.7594 16.7492 29.147 16.9787 29.5697 17.119L31.4352 17.7408V20.2125ZM18.9988 12.7818C17.769 12.7818 16.5668 13.1465 15.5442 13.8298C14.5216 14.513 13.7246 15.4842 13.254 16.6204C12.7833 17.7566 12.6602 19.0069 12.9001 20.2131C13.1401 21.4193 13.7323 22.5273 14.6019 23.3969C15.4715 24.2665 16.5795 24.8588 17.7857 25.0987C18.9919 25.3386 20.2422 25.2155 21.3784 24.7448C22.5146 24.2742 23.4858 23.4772 24.1691 22.4546C24.8523 21.4321 25.217 20.2298 25.217 19C25.217 17.3508 24.5619 15.7692 23.3957 14.6031C22.2296 13.4369 20.648 12.7818 18.9988 12.7818ZM18.9988 22.1091C18.3839 22.1091 17.7828 21.9267 17.2715 21.5851C16.7602 21.2435 16.3617 20.7579 16.1264 20.1898C15.8911 19.6217 15.8295 18.9966 15.9495 18.3934C16.0694 17.7903 16.3656 17.2364 16.8004 16.8015C17.2352 16.3667 17.7892 16.0706 18.3923 15.9506C18.9954 15.8307 19.6205 15.8923 20.1886 16.1276C20.7567 16.3629 21.2423 16.7614 21.5839 17.2727C21.9256 17.784 22.1079 18.3851 22.1079 19C22.1079 19.8246 21.7803 20.6154 21.1973 21.1985C20.6142 21.7815 19.8234 22.1091 18.9988 22.1091Z" fill="white"/>
</svg>
